<?xml version="1.0" encoding="UTF-8" standalone="no"?>
<svg
   xmlns:dc="http://purl.org/dc/elements/1.1/"
   xmlns:cc="http://creativecommons.org/ns#"
   xmlns:rdf="http://www.w3.org/1999/02/22-rdf-syntax-ns#"
   xmlns:svg="http://www.w3.org/2000/svg"
   xmlns="http://www.w3.org/2000/svg"
   viewBox="0 0 1053 576"
   height="576"
   width="1053"
   xml:space="preserve"
   id="svg2"
   version="1.1"><metadata
     id="metadata8"><rdf:RDF><cc:Work
         rdf:about=""><dc:format>image/svg+xml</dc:format><dc:type
           rdf:resource="http://purl.org/dc/dcmitype/StillImage" /></cc:Work></rdf:RDF></metadata><defs
     id="defs6" /><g
     transform="matrix(1.3333333,0,0,-1.3333333,0,576)"
     id="g10"><g
       transform="scale(0.1)"
       id="g12"><path
         id="path14"
         style="fill:#c1193c;fill-opacity:1;fill-rule:nonzero;stroke:none"
         d="m 6408.16,2258.45 c -109.67,0 -177.08,-109.28 -177.08,-218.91 0,-17.2 1.95,-30.13 4.22,-42.49 166.6,32.03 247.92,120.83 247.92,191.27 0,44.41 -28.03,70.13 -75.06,70.13" /><path
         id="path16"
         style="fill:#c1193c;fill-opacity:1;fill-rule:nonzero;stroke:none"
         d="m 5561.93,2537.56 c 40.46,0 71.91,-32.92 70.11,-73.39 -1.8,-40.46 -36.2,-73.38 -76.66,-73.38 -40.47,0 -71.91,32.92 -70.11,73.38 1.8,40.47 36.2,73.39 76.66,73.39 z m -635.37,-493.23 c 7.08,100.55 26.51,201.55 44.96,281.6 56.64,245.59 152.4,432.66 287.63,432.66 94.05,0 128.99,-65.33 129.76,-142.58 2.05,-203.6 -163.35,-452.53 -360.25,-609 -2.58,-97.84 28.82,-142.96 86.23,-142.96 103.14,0 205.95,105.1 294.54,316.72 12.08,28.87 23.59,62.06 36.29,94.03 17.72,44.56 110.36,18.75 97.09,-25.55 -28.42,-94.74 -73.92,-220.09 -73.92,-302.93 0,-55.41 27.88,-78.46 68.96,-77.86 57.13,0.85 103.94,41.8 137.36,81.75 0,0 23.52,117.79 30.38,150.34 96.59,458.75 208.12,658.17 354.35,658.17 87.36,0 131.71,-53.68 131.71,-140.43 0,-159.11 -109.58,-341.89 -320.35,-594.36 65.72,-22.97 138.14,-40.18 230.41,-40.18 5.43,0 18.14,0.05 23.44,0.14 -1.97,12.59 -3.88,35.65 -3.88,54.82 0,178.39 127.66,305.62 285.18,305.62 103.04,0 183.12,-48.19 183.12,-154.08 0,-132.58 -140.56,-237.71 -317.84,-274.27 27.61,-32.78 81.8,-56.26 157.64,-56.26 170.08,0 301.18,83.54 388.13,164.83 V 3240 H 4657.49 V 1900.67 c 99.74,37.11 191.99,87.78 269.07,143.66" /><path
         id="path18"
         style="fill:#c1193c;fill-opacity:1;fill-rule:nonzero;stroke:none"
         d="m 6058.79,2672.76 c -51.93,0 -156.9,-150.41 -248.11,-582.44 154.39,195.22 279.6,416.06 279.6,530.85 0,30.35 -8.8,51.59 -31.49,51.59" /><path
         id="path20"
         style="fill:#c1193c;fill-opacity:1;fill-rule:nonzero;stroke:none"
         d="m 6429.48,1768.11 c -148.19,0 -231.72,57.53 -276.35,130.41 -14.54,-0.74 -31.69,-1.12 -47.29,-1.12 -78.02,0 -148.56,10.68 -199.24,27.38 40.23,-85.66 66.3,-197.84 66.05,-299.93 -0.48,-194.18 -70.36,-321.75 -203.73,-321.75 -95.01,0 -149.14,69.35 -151.03,212.39 -1.38,104.28 12.48,190.76 33.1,307.92 -32.31,-26.92 -77.52,-46.36 -131.81,-46.55 -98.04,-0.36 -152.61,61.97 -156.51,147.94 -76.28,-102.83 -168.01,-152.34 -263.73,-152.34 -104.35,0 -160.02,67.05 -171.05,167.15 -74.8,-47.47 -166.06,-97.13 -270.4,-134.34 V 1080 H 6817.5 v 826.97 c -115.07,-91.49 -248.31,-138.86 -388.02,-138.86" /><path
         id="path22"
         style="fill:#c1193c;fill-opacity:1;fill-rule:nonzero;stroke:none"
         d="m 5259.45,2672.66 c -56.21,0 -155.38,-167.96 -217.1,-537.13 175.88,171.69 247.6,393.8 247.6,482.07 0,40.94 -10.83,55.06 -30.5,55.06" /><path
         id="path24"
         style="fill:#c1193c;fill-opacity:1;fill-rule:nonzero;stroke:none"
         d="m 5777.23,1927.73 c -22.91,-106.32 -54.28,-293.53 -54.28,-412.36 0,-69.07 15.01,-112.94 55.12,-112.94 69.56,0 90.32,122.46 90.32,213.1 0,117.51 -30.43,241.24 -77.2,326.69 l -13.96,-14.49" /><path
         id="path26"
         style="fill:#7c7e69;fill-opacity:1;fill-rule:nonzero;stroke:none"
         d="m 1194.17,2023.95 c 0,-26.93 2.87,-52.22 8.65,-75.86 5.77,-23.65 14.96,-44.2 27.59,-61.67 12.61,-17.46 29.02,-31.29 49.22,-41.47 20.18,-10.2 44.35,-15.28 72.47,-15.28 20.32,0 38.55,3.03 54.73,9.11 16.17,6.06 29.91,13.03 41.19,20.9 13.54,8.57 25.57,18.57 36.11,30.01 6.06,-6.8 13.83,-17.17 23.31,-31.16 9.47,-13.98 14.21,-26.91 14.21,-38.78 -0.19,-3.77 -1.24,-7.68 -3.14,-11.72 -3.5,-7.44 -10.32,-15.39 -20.45,-23.86 -14.4,-12.51 -35.14,-23.24 -62.2,-32.23 -27.09,-9 -59.93,-13.5 -98.56,-13.5 -25,0 -52.4,3.51 -82.22,10.5 -29.82,7.02 -57.65,20.83 -83.49,41.47 -25.86,20.64 -47.57,49.42 -65.18,86.34 -17.62,36.93 -26.41,85.68 -26.41,146.28 0,56.15 9.22,102.45 27.65,138.88 18.44,36.43 41.09,65.07 67.99,85.95 26.88,20.86 55.49,35.47 85.85,43.83 30.33,8.34 57.03,12.52 80.08,12.52 28.21,0 53.72,-2.97 76.53,-8.94 22.81,-5.97 42.18,-13.67 58.21,-23 15.22,-8.84 26.7,-17.95 34.38,-27.41 7.67,-9.48 11.5,-19.04 11.5,-28.69 0,-18.48 -13.88,-45.49 -31.27,-68.57 -12.45,14.23 -30.73,28.46 -54.82,42.72 -24.11,14.23 -50.93,21.35 -80.47,21.35 -28.62,0 -53.07,-4.74 -73.39,-14.19 -20.32,-9.46 -37.09,-22.74 -50.25,-39.83 -13.18,-17.1 -22.77,-37.11 -28.79,-60.03 -6.03,-22.92 -9.03,-47.48 -9.03,-73.67" /><path
         id="path28"
         style="fill:#7c7e69;fill-opacity:1;fill-rule:nonzero;stroke:none"
         d="m 1944.39,1911.18 c 0,-8.84 -3.76,-18.06 -11.27,-27.63 -7.51,-9.58 -17.7,-18.42 -30.58,-26.52 -12.88,-8.12 -27.73,-14.93 -44.53,-20.45 -16.82,-5.53 -34.52,-8.29 -53.12,-8.29 -35.05,0 -59.01,8.46 -71.89,25.42 -12.88,16.94 -19.32,36.47 -19.32,58.58 0,23.57 6.08,42.55 18.24,56.92 12.16,14.36 27.91,25.59 47.22,33.7 19.31,8.1 40.78,13.63 64.38,16.58 23.61,2.94 46.85,4.43 69.75,4.43 h 31.12 z m 130.17,-143.08 c -8.44,11.27 -14.25,27.71 -17.45,49.41 -3.51,23.44 -5.21,55.97 -5.21,97.61 v 188.36 c 0,33.05 -3.32,62.29 -9.94,87.68 -6.63,25.38 -18.13,46.52 -34.5,63.44 -16.37,16.91 -37.83,29.61 -64.32,38.08 -26.52,8.45 -59.65,12.69 -99.41,12.69 -23.43,0 -47.26,-1.96 -71.46,-5.86 -24.21,-3.93 -46.27,-9.39 -66.18,-16.42 -19.92,-7.04 -36.13,-15.07 -48.62,-24.05 -12.5,-9 -18.74,-18.58 -18.74,-28.73 0,-6.73 2.44,-16.99 7.35,-30.76 4.88,-13.78 11.36,-26.39 19.43,-37.81 23.48,16.58 47.77,29.03 72.87,38.58 25.09,9.52 55.86,14.91 92.29,14.91 43.9,0 73.59,-8.39 89.08,-25.12 15.47,-16.76 23.21,-41.16 23.21,-73.23 v -17.96 c -6.79,0.74 -14.71,1.13 -23.77,1.13 -9.06,0 -16.98,0 -23.77,0 -27.93,-0.76 -58.7,-3.8 -92.26,-9.07 -33.59,-5.31 -65.1,-15.15 -94.53,-29.5 -29.43,-14.38 -54.16,-34.03 -74.15,-59 -20.01,-24.95 -30,-57.1 -30,-96.42 v 0 c 0,-32.49 5.45,-59.18 16.39,-80.06 10.92,-20.89 24.76,-37.53 41.55,-49.9 16.78,-12.38 35.51,-20.88 56.19,-25.52 20.67,-4.64 41.16,-6.97 61.46,-6.97 42.05,0 75.98,6.55 101.81,19.61 25.82,13.05 47.96,28.93 66.41,47.6 2.8,-22.32 12.29,-37.84 28.47,-46.55 16.17,-8.71 35.16,-13.07 56.96,-13.07 6.81,0 13.39,0.34 19.72,1.02 6.32,0.69 11.68,1.54 16.07,2.56 3.94,0.92 6.73,4.19 6.73,8.27 0,1.9 -0.63,3.64 -1.68,5.05" /><path
         id="path30"
         style="fill:#7c7e69;fill-opacity:1;fill-rule:nonzero;stroke:none"
         d="m 2657.23,1755 h -111.51 v 306.57 c 0,21.1 -0.74,40.78 -2.23,59.02 -1.49,18.23 -5.47,33.84 -11.92,46.79 -6.48,12.96 -16.91,23.04 -31.29,30.24 -14.41,7.19 -34.53,10.79 -60.35,10.79 -36.35,0 -67.55,-7.32 -93.56,-24.16 -26.04,-16.87 -39.04,-38.9 -39.04,-63.89 V 1755 h -111.79 v 539.18 c 1.62,0.19 3.57,0.39 5.85,0.59 1.95,0.2 4.22,0.35 6.82,0.45 2.6,0.1 5.68,0.15 9.26,0.15 19.77,0 37.61,-4.58 53.54,-13.68 15.9,-9.13 25.58,-24.8 29.03,-46.99 17.41,18.36 41.07,34.74 71.01,49.11 29.91,14.38 65.33,21.57 106.24,21.57 51.62,0 91.1,-11.53 118.44,-34.58 27.33,-23.04 45.16,-51.85 53.52,-86.42 3.79,-15.37 6.07,-32.46 6.83,-51.27 0.76,-18.83 1.15,-37.07 1.15,-54.73 V 1755" /><path
         id="path32"
         style="fill:#7c7e69;fill-opacity:1;fill-rule:nonzero;stroke:none"
         d="m 3107.02,1911.18 c 0,-8.84 -3.75,-18.06 -11.26,-27.63 -7.51,-9.58 -17.71,-18.42 -30.58,-26.52 -12.88,-8.12 -27.73,-14.93 -44.53,-20.45 -16.82,-5.53 -34.53,-8.29 -53.12,-8.29 -35.06,0 -59.01,8.46 -71.89,25.42 -12.88,16.94 -19.32,36.47 -19.32,58.58 0,23.57 6.07,42.55 18.25,56.92 12.15,14.36 27.9,25.59 47.21,33.7 19.31,8.1 40.77,13.63 64.38,16.58 23.61,2.94 46.84,4.43 69.75,4.43 h 31.11 z m 130.17,-143.08 c -8.43,11.27 -14.24,27.71 -17.44,49.41 -3.5,23.44 -5.21,55.97 -5.21,97.61 v 188.36 c 0,33.05 -3.33,62.29 -9.94,87.68 -6.64,25.38 -18.13,46.52 -34.5,63.44 -16.37,16.91 -37.83,29.61 -64.33,38.08 -26.51,8.45 -59.64,12.69 -99.4,12.69 -23.43,0 -47.26,-1.96 -71.46,-5.86 -24.22,-3.93 -46.27,-9.39 -66.18,-16.42 -19.92,-7.04 -36.14,-15.07 -48.62,-24.05 -12.5,-9 -18.74,-18.58 -18.74,-28.73 0,-6.73 2.44,-16.99 7.34,-30.76 4.89,-13.78 11.37,-26.39 19.45,-37.81 23.47,16.58 47.75,29.03 72.86,38.58 25.08,9.52 55.86,14.91 92.29,14.91 43.9,0 73.59,-8.39 89.08,-25.12 15.47,-16.76 23.21,-41.16 23.21,-73.23 v -17.96 c -6.79,0.74 -14.72,1.13 -23.77,1.13 -9.06,0 -16.99,0 -23.78,0 -27.93,-0.76 -58.68,-3.8 -92.26,-9.07 -33.59,-5.31 -65.09,-15.15 -94.52,-29.5 -29.43,-14.38 -54.16,-34.03 -74.15,-59 -20,-24.95 -30,-57.1 -30,-96.42 v 0 c 0,-32.49 5.45,-59.18 16.39,-80.06 10.91,-20.89 24.76,-37.53 41.55,-49.9 16.77,-12.38 35.5,-20.88 56.19,-25.52 20.67,-4.64 41.15,-6.97 61.46,-6.97 42.05,0 75.98,6.55 101.81,19.61 25.82,13.05 47.95,28.93 66.4,47.6 2.81,-22.32 12.3,-37.84 28.48,-46.55 16.17,-8.71 35.16,-13.07 56.96,-13.07 6.81,0 13.38,0.34 19.72,1.02 6.32,0.69 11.68,1.54 16.06,2.56 3.95,0.92 6.74,4.19 6.74,8.27 0,1.9 -0.63,3.64 -1.69,5.05" /><path
         id="path34"
         style="fill:#7c7e69;fill-opacity:1;fill-rule:nonzero;stroke:none"
         d="m 3700.87,1901.61 c 0,-8.77 -2.84,-17.53 -8.5,-26.3 -5.66,-8.77 -13.79,-16.44 -24.41,-23.02 -10.61,-6.57 -23.18,-12.05 -37.67,-16.43 -14.51,-4.39 -30.25,-6.58 -47.23,-6.58 -25.47,0 -46.88,4.93 -64.21,14.8 -17.34,9.86 -31.3,23.73 -41.92,41.64 -10.61,17.89 -18.04,38.9 -22.28,63.01 -4.25,24.11 -6.37,50.41 -6.37,78.9 0,61.37 11.68,107.75 35.02,139.17 23.35,31.4 55.19,47.12 95.52,47.12 16.98,0 32.18,-2.02 45.63,-6.03 13.43,-4.02 25.29,-8.95 35.56,-14.79 10.24,-5.85 18.73,-12.06 25.46,-18.63 6.2,-6.06 11.3,-11.15 15.4,-15.35 z m 133.64,-133.51 c -8.44,11.27 -14.25,27.71 -17.45,49.41 -3.5,23.44 -5.21,55.97 -5.21,97.61 v 555.21 c 0,19.39 -2.23,35.1 -6.68,47.15 -4.46,12.03 -10.55,21.54 -18.26,28.52 -7.72,6.99 -16.48,11.65 -26.28,13.97 -9.8,2.33 -19.46,3.5 -28.95,3.5 -4.92,0 -10.5,-0.13 -16.75,-0.37 -6.26,-0.25 -10.95,-0.62 -14.06,-1.11 v -311.47 c -11.85,11.25 -30,22.67 -54.49,34.3 -24.5,11.62 -55.74,17.43 -93.75,17.43 -28.69,0 -56.48,-5.63 -83.33,-16.92 -26.87,-11.28 -50.41,-28.4 -70.63,-51.34 -20.25,-22.96 -36.42,-52.47 -48.57,-88.59 -12.14,-36.1 -18.2,-78.98 -18.2,-128.63 0,-52.34 6.19,-96.15 18.61,-131.42 12.4,-35.28 29.09,-63.54 50.03,-84.77 20.94,-21.25 44.79,-36.41 71.55,-45.52 26.76,-9.1 54.48,-13.65 83.19,-13.65 39.86,0 72.63,7.86 98.33,23.57 25.68,15.72 43.88,30.99 54.62,45.84 2.81,-22.32 12.3,-37.84 28.48,-46.55 16.17,-8.71 35.16,-13.07 56.96,-13.07 6.81,0 13.39,0.34 19.72,1.02 6.32,0.69 11.68,1.54 16.07,2.56 3.94,0.92 6.73,4.19 6.73,8.27 0,1.9 -0.63,3.64 -1.68,5.05" /><path
         id="path36"
         style="fill:#7c7e69;fill-opacity:1;fill-rule:nonzero;stroke:none"
         d="m 4265.87,1911.18 c 0,-8.84 -3.76,-18.06 -11.27,-27.63 -7.51,-9.58 -17.7,-18.42 -30.59,-26.52 -12.87,-8.12 -27.72,-14.93 -44.53,-20.45 -16.81,-5.53 -34.51,-8.29 -53.1,-8.29 -35.06,0 -59.03,8.46 -71.9,25.42 -12.88,16.94 -19.31,36.47 -19.31,58.58 0,23.57 6.06,42.55 18.24,56.92 12.15,14.36 27.9,25.59 47.21,33.7 19.31,8.1 40.78,13.63 64.38,16.58 23.6,2.94 46.85,4.43 69.75,4.43 h 31.12 z m 130.17,-143.08 c -8.44,11.27 -14.25,27.71 -17.46,49.41 -3.49,23.44 -5.2,55.97 -5.2,97.61 v 188.36 c 0,33.05 -3.32,62.29 -9.94,87.68 -6.63,25.38 -18.13,46.52 -34.5,63.44 -16.37,16.91 -37.83,29.61 -64.32,38.08 -26.51,8.45 -59.65,12.69 -99.41,12.69 -23.43,0 -47.26,-1.96 -71.46,-5.86 -24.22,-3.93 -46.27,-9.39 -66.18,-16.42 -19.91,-7.04 -36.13,-15.07 -48.61,-24.05 -12.5,-9 -18.75,-18.58 -18.75,-28.73 0,-6.73 2.45,-16.99 7.35,-30.76 4.88,-13.78 11.36,-26.39 19.43,-37.81 23.48,16.58 47.77,29.03 72.87,38.58 25.08,9.52 55.86,14.91 92.3,14.91 43.9,0 73.58,-8.39 89.07,-25.12 15.47,-16.76 23.21,-41.16 23.21,-73.23 v -17.96 c -6.79,0.74 -14.71,1.13 -23.78,1.13 -9.05,0 -16.97,0 -23.76,0 -27.93,-0.76 -58.7,-3.8 -92.26,-9.07 -33.59,-5.31 -65.1,-15.15 -94.53,-29.5 -29.44,-14.38 -54.16,-34.03 -74.15,-59 -20,-24.95 -30,-57.1 -30,-96.42 v 0 c 0,-32.49 5.45,-59.18 16.38,-80.06 10.92,-20.89 24.77,-37.53 41.57,-49.9 16.76,-12.38 35.5,-20.88 56.18,-25.52 20.67,-4.64 41.15,-6.97 61.45,-6.97 42.06,0 75.99,6.55 101.82,19.61 25.82,13.05 47.96,28.93 66.41,47.6 2.8,-22.32 12.29,-37.84 28.47,-46.55 16.17,-8.71 35.16,-13.07 56.96,-13.07 6.81,0 13.38,0.34 19.72,1.02 6.32,0.69 11.68,1.54 16.07,2.56 3.94,0.92 6.73,4.19 6.73,8.27 0,1.9 -0.63,3.64 -1.68,5.05" /><path
         id="path38"
         style="fill:#ffffff;fill-opacity:1;fill-rule:nonzero;stroke:none"
         d="m 5555.38,2390.79 c 40.46,0 74.86,32.92 76.66,73.38 1.8,40.47 -29.65,73.39 -70.11,73.39 -40.46,0 -74.86,-32.92 -76.66,-73.39 -1.8,-40.46 29.64,-73.38 70.11,-73.38" /><path
         id="path40"
         style="fill:#ffffff;fill-opacity:1;fill-rule:nonzero;stroke:none"
         d="m 6231.08,2039.54 c 0,109.63 67.41,218.91 177.08,218.91 47.03,0 75.06,-25.72 75.06,-70.13 0,-70.44 -81.32,-159.24 -247.92,-191.27 -2.27,12.36 -4.22,25.29 -4.22,42.49 z m -453.01,-637.11 c -40.11,0 -55.12,43.87 -55.12,112.94 0,118.83 31.37,306.04 54.28,412.36 l 13.96,14.49 c 46.77,-85.45 77.2,-209.18 77.2,-326.69 0,-90.64 -20.76,-213.1 -90.32,-213.1 z m 280.72,1270.33 c 22.69,0 31.49,-21.24 31.49,-51.59 0,-114.79 -125.21,-335.63 -279.6,-530.85 91.21,432.03 196.18,582.44 248.11,582.44 z m -799.34,-0.1 c 19.67,0 30.5,-14.12 30.5,-55.06 0,-88.27 -71.72,-310.38 -247.6,-482.07 61.72,369.17 160.89,537.13 217.1,537.13 z m 1169.92,-812.94 c -75.84,0 -130.03,23.48 -157.64,56.26 177.28,36.56 317.84,141.69 317.84,274.27 0,105.89 -80.08,154.08 -183.12,154.08 -157.52,0 -285.18,-127.22 -285.18,-305.62 0,-19.17 1.91,-42.23 3.88,-54.82 -5.3,-0.1 -18.01,-0.14 -23.44,-0.14 -92.27,0 -164.69,17.21 -230.41,40.18 210.77,252.47 320.35,435.25 320.35,594.36 0,86.75 -44.35,140.43 -131.71,140.43 -146.23,0 -257.76,-199.42 -354.35,-658.17 -6.86,-32.55 -30.38,-150.34 -30.38,-150.34 -33.42,-39.95 -80.23,-80.9 -137.36,-81.75 -41.08,-0.6 -68.96,22.45 -68.96,77.86 0,82.84 45.5,208.19 73.92,302.93 13.27,44.3 -79.37,70.11 -97.09,25.55 -12.7,-31.97 -24.21,-65.16 -36.29,-94.03 -88.59,-211.62 -191.4,-316.72 -294.54,-316.72 -57.41,0 -88.81,45.12 -86.23,142.96 196.9,156.48 362.3,405.4 360.25,609 -0.77,77.25 -35.71,142.58 -129.76,142.58 -135.23,0 -230.99,-187.07 -287.63,-432.66 -18.45,-80.05 -37.88,-181.05 -44.96,-281.6 -77.08,-55.88 -169.33,-106.55 -269.07,-143.66 v -95.4 c 104.34,37.21 195.6,86.87 270.4,134.34 11.03,-100.1 66.7,-167.15 171.05,-167.15 95.72,0 187.45,49.51 263.73,152.34 3.9,-85.97 58.47,-148.3 156.51,-147.94 54.29,0.19 99.5,19.63 131.81,46.55 -20.62,-117.16 -34.48,-203.64 -33.1,-307.92 1.89,-143.03 56.02,-212.39 151.03,-212.39 133.37,0 203.25,127.57 203.73,321.75 0.25,102.09 -25.82,214.27 -66.05,299.93 50.68,-16.7 121.22,-27.38 199.24,-27.38 15.6,0 32.75,0.38 47.29,1.12 44.63,-72.88 128.16,-130.41 276.35,-130.41 139.71,0 272.95,47.37 388.02,138.86 v 117.58 c -86.95,-81.29 -218.05,-164.83 -388.13,-164.83" /><path
         id="path42"
         style="fill:#7c7e69;fill-opacity:1;fill-rule:nonzero;stroke:none"
         d="m 7295.19,3232.65 -67.47,-181.51 -67.54,181.51 h -40.46 v -216 h 26.99 v 179.99 h 1.48 l 65.98,-179.99 h 27.01 l 66.01,179.99 h 1.51 v -179.99 h 27.01 v 216 h -40.52" /><path
         id="path44"
         style="fill:#7c7e69;fill-opacity:1;fill-rule:nonzero;stroke:none"
         d="m 6921.7,3208.65 h 73.48 v -192 h 27.01 v 192 h 73.51 v 24 h -174 v -24" /></g></g></svg>