<?xml version="1.0" encoding="utf-8"?>
<!-- Generator: Adobe Illustrator 27.0.0, SVG Export Plug-In . SVG Version: 6.00 Build 0)  -->
<svg version="1.1" xmlns="http://www.w3.org/2000/svg" xmlns:xlink="http://www.w3.org/1999/xlink" x="0px" y="0px"
	 viewBox="0 0 622.77 216" style="enable-background:new 0 0 622.77 216;" xml:space="preserve">
<style type="text/css">
	.st0{display:none;}
	.st1{display:inline;}
	.st2{fill:#DCDDDD;}
	.st3{fill:#00383B;}
</style>
<g id="Clear_Space" class="st0">
	<g class="st1">
		<rect x="0" class="st2" width="51.25" height="51.25"/>
		<rect x="571.53" class="st2" width="51.25" height="51.25"/>
		<rect x="0" y="164.75" class="st2" width="51.25" height="51.25"/>
		<rect x="571.53" y="164.75" class="st2" width="51.25" height="51.25"/>
	</g>
</g>
<g id="Logo">
	<g>
		<g>
			<g>
				<polygon class="st3" points="570.11,75.25 567.96,78.67 565.81,75.25 564.44,75.25 564.44,82.09 565.81,82.09 565.81,77.54 
					567.89,80.86 568.03,80.86 570.11,77.54 570.11,82.09 571.48,82.09 571.48,75.25 				"/>
				<polygon class="st3" points="558.33,76.52 560.31,76.52 560.31,82.09 561.68,82.09 561.68,76.52 563.62,76.52 563.62,75.25 
					558.33,75.25 				"/>
			</g>
			<g>
				<path class="st3" d="M189.41,106.65h14.92c-1.69,5.63-6.62,9.36-14.36,9.36c-10.28,0-16.82-6.9-16.82-16.05
					c0-9.36,6.76-16.26,16.12-16.26c5.98,0,10.98,2.89,13.23,6.83l8.31-4.79c-4.15-6.76-12.11-11.47-21.47-11.47
					c-14.71,0-25.84,11.4-25.84,25.69c0,14.08,10.98,25.55,26.4,25.55c14.15,0,24.22-9.43,24.22-23.65v-3.8h-24.71V106.65z"/>
				<path class="st3" d="M229.03,95.39v-6.05h-9.08v35.2h9.08V107.7c0-7.39,5.98-9.5,10.7-8.94V88.63
					C235.3,88.63,230.86,90.6,229.03,95.39z"/>
				<path class="st3" d="M260.56,88.35c-11.05,0-18.58,8.1-18.58,18.58c0,10.49,7.46,18.58,19.29,18.58
					c6.76,0,12.04-2.75,15.35-7.53l-7.32-4.22c-1.55,2.04-4.36,3.52-7.88,3.52c-4.79,0-8.66-1.97-9.93-6.62h26.54
					c0.21-1.2,0.35-2.39,0.35-3.73C278.37,96.58,270.98,88.35,260.56,88.35z M251.34,103.62c1.06-4.51,4.36-7.11,9.22-7.11
					c3.8,0,7.6,2.04,8.73,7.11H251.34z"/>
				<path class="st3" d="M300.54,88.35c-11.05,0-18.58,8.1-18.58,18.58c0,10.49,7.46,18.58,19.29,18.58
					c6.76,0,12.04-2.75,15.35-7.53l-7.32-4.22c-1.55,2.04-4.36,3.52-7.88,3.52c-4.79,0-8.66-1.97-9.93-6.62H318
					c0.21-1.2,0.35-2.39,0.35-3.73C318.35,96.58,310.96,88.35,300.54,88.35z M291.32,103.62c1.06-4.51,4.36-7.11,9.22-7.11
					c3.8,0,7.6,2.04,8.73,7.11H291.32z"/>
				<path class="st3" d="M343.4,88.35c-4.72,0-8.38,1.76-10.49,4.93v-3.94h-9.08v35.2h9.08v-19.01c0-6.12,3.31-8.73,7.74-8.73
					c4.08,0,6.97,2.46,6.97,7.25v20.48h9.08v-21.61C356.7,93.55,350.86,88.35,343.4,88.35z"/>
				<path class="st3" d="M383.59,95.53c-7.46-2.25-9.36-3.87-9.36-6.9c0-2.82,2.39-4.93,6.48-4.93c5,0,7.67,2.6,9.43,6.34l8.17-4.72
					c-3.31-6.9-9.5-11.05-17.6-11.05c-8.45,0-16.19,5.35-16.19,14.64c0,9.36,7.32,12.53,14.85,14.71
					c7.32,2.11,10.63,3.52,10.63,7.18c0,2.75-2.04,5.21-7.88,5.21c-6.12,0-9.57-2.96-11.33-7.53l-8.31,4.86
					c2.67,7.32,9.29,12.18,19.36,12.18c10.49,0,17.88-5.63,17.88-14.85C399.71,100.59,391.41,97.99,383.59,95.53z"/>
				<path class="st3" d="M424.64,88.35c-4.72,0-8.38,1.76-10.49,4.93V75.25h-9.08v49.28h9.08v-19.01c0-6.12,3.31-8.73,7.74-8.73
					c4.08,0,6.97,2.46,6.97,7.25v20.48h9.08v-21.61C437.95,93.55,432.11,88.35,424.64,88.35z"/>
				<path class="st3" d="M476.25,88.35c-11.05,0-18.58,8.1-18.58,18.58c0,10.49,7.46,18.58,19.29,18.58
					c6.76,0,12.04-2.75,15.35-7.53l-7.32-4.22c-1.55,2.04-4.36,3.52-7.88,3.52c-4.79,0-8.66-1.97-9.93-6.62h26.54
					c0.21-1.2,0.35-2.39,0.35-3.73C494.06,96.58,486.67,88.35,476.25,88.35z M467.03,103.62c1.06-4.51,4.36-7.11,9.22-7.11
					c3.8,0,7.6,2.04,8.73,7.11H467.03z"/>
				<rect x="499.49" y="75.25" class="st3" width="9.08" height="49.28"/>
				<path class="st3" d="M542.54,93.48c-2.53-3.24-6.27-5.14-11.4-5.14c-9.43,0-17.18,8.1-17.18,18.58
					c0,10.49,7.74,18.58,17.18,18.58c5.14,0,8.87-1.9,11.4-5.14v4.15h9.08V75.25h-9.08V93.48z M532.83,116.86
					c-5.63,0-9.78-4.01-9.78-9.93c0-5.91,4.15-9.93,9.78-9.93c5.56,0,9.71,4.01,9.71,9.93
					C542.54,112.84,538.39,116.86,532.83,116.86z"/>
				<polygon class="st3" points="443.44,124.53 452.52,124.53 452.52,89.33 443.44,98.41 				"/>
				<rect x="443.44" y="80.25" class="st3" width="9.08" height="9.08"/>
			</g>
		</g>
		<polygon class="st3" points="81.57,102.71 92.08,113.22 118.16,87.15 118.16,117.79 92.13,143.82 66.1,117.79 66.1,66.12 
			96.94,66.12 111.81,51.25 51.23,51.25 51.23,123.95 92.13,164.85 133.03,123.95 133.03,51.25 		"/>
	</g>
</g>
</svg>
